<svg width="155" height="32" viewBox="0 0 155 32" fill="none" xmlns="http://www.w3.org/2000/svg">
<path d="M10.2279 6.4339C10.5194 6.35666 11.0669 6.30578 11.3793 6.27336C13.9665 6.02299 16.5672 6.59036 18.8138 7.89529C20.4395 8.83547 21.9133 10.1178 23.2872 11.3866C23.3419 11.437 23.5877 11.6553 23.6175 11.7052C23.9165 11.9566 24.2982 12.368 24.5849 12.6511L26.7569 14.8304C27.8025 15.8651 29.0131 17.0375 30.3596 17.6711C30.1855 17.6424 29.5152 17.3874 29.2975 17.3184C28.4801 17.0516 27.6305 16.8956 26.7714 16.8545C25.6319 16.8029 24.6486 16.9696 23.5245 17.0903C22.0562 17.248 20.6112 17.1864 19.1664 16.8815C17.9157 16.6176 16.8787 16.1682 15.7295 15.6081C14.7861 15.1483 13.8083 14.6423 12.7994 14.3404C12.6282 14.2891 11.9671 14.1316 11.8084 14.2208C11.0537 13.9984 10.0022 14.2463 9.33998 14.6275C7.38127 15.7552 6.45236 18.0319 6.99081 20.2178C7.03539 20.3987 7.21885 20.8572 7.23141 20.9898C8.01254 22.7086 9.26214 23.7686 11.1127 24.1991C9.08316 24.0432 7.47714 23.4354 5.79613 22.2816C5.32357 21.9573 4.63085 21.4062 4.25331 20.9891C4.07321 20.8382 3.78903 20.5138 3.63297 20.3286C2.7019 19.2415 2.07929 17.9254 1.82979 16.5171C1.56054 15.0159 1.63434 13.6478 2.27493 12.2374C2.39477 11.9736 2.54556 11.6633 2.70968 11.4274C3.49501 9.97915 5.20801 8.50587 6.64069 7.72783C7.64539 7.18223 9.08888 6.5934 10.2279 6.4339Z" fill="url(#paint0_linear_2029_5855)"/>
<path d="M0.596943 14.6859L0.754225 14.6118L0.780984 14.6231L0.814423 14.7668C0.568813 16.6503 1.2087 18.751 2.32337 20.2744C4.08739 22.7179 6.9858 24.2884 9.94001 24.7356C12.7685 25.1637 16.6031 24.1255 18.8864 22.4281C21.1488 24.4572 24.3925 26.6086 27.4056 27.2411C26.7928 27.4733 26.3084 27.7328 25.7219 28.0263C25.0963 28.3391 24.4677 28.6463 23.8364 28.9476C19.4304 31.0402 14.6755 32.9266 9.75562 31.5054C6.26152 30.4744 3.32416 28.0945 1.59523 24.8936C1.20082 24.1708 0.901361 23.4296 0.647691 22.648C-0.220251 19.9743 -0.194533 17.377 0.596943 14.6859Z" fill="url(#paint1_radial_2029_5855)"/>
<path d="M40.2086 5.82776L40.2503 5.84736C40.5384 6.25307 41.3997 7.52043 41.5475 7.97847C41.3871 8.09061 41.1612 8.21604 40.9889 8.31701L40.9598 8.32468C40.899 8.27661 40.8382 8.11372 40.8004 8.03812C40.4734 7.38674 40.0667 6.79803 39.646 6.20651L40.2086 5.82776Z" fill="#099FAE"/>
<path d="M37.9186 3.27332C38.247 3.49511 39.4677 4.7391 39.6716 5.06889C39.5774 5.17317 39.3068 5.40096 39.1953 5.4849L39.1579 5.48972C39.0749 5.43099 38.9978 5.33645 38.9284 5.25912C38.4735 4.75069 37.9702 4.29683 37.4703 3.83331C37.6186 3.64588 37.7682 3.45919 37.9186 3.27332Z" fill="#099FAE"/>
<path d="M35.2256 1.48242C35.4979 1.60969 36.3249 2.11139 36.5577 2.27614C36.8158 2.4214 36.9878 2.55871 37.2166 2.7479C37.1265 2.90804 36.9601 3.15465 36.8503 3.30867C36.76 3.26069 35.859 2.66327 35.8166 2.61226C35.5642 2.48879 35.1615 2.23682 34.8875 2.08792C34.9907 1.86034 35.0735 1.68089 35.2256 1.48242Z" fill="#099FAE"/>
<path d="M41.8109 8.84839L41.8646 8.86581C42.1201 9.1877 42.5663 10.6785 42.621 11.14C42.4561 11.1684 42.2732 11.1879 42.1047 11.2123C42.0375 11.2125 42.0274 11.2165 41.9625 11.1948C41.7586 10.4387 41.5896 9.83984 41.2885 9.10159C41.4865 9.01566 41.6228 8.95311 41.8109 8.84839Z" fill="#099FAE"/>
<path d="M42.6284 12.0217C42.7024 12.0128 42.6996 12.0098 42.7701 12.0292C42.9594 12.329 42.9722 14.0175 42.9497 14.4285C42.7971 14.4195 42.719 14.4149 42.5681 14.3853C42.476 14.3747 42.402 14.3606 42.3106 14.343C42.309 13.4643 42.2789 13.0144 42.1736 12.1451C42.3139 12.0966 42.4826 12.0584 42.6284 12.0217Z" fill="#099FAE"/>
<path d="M32.2654 0.392944C32.8218 0.537218 33.9648 0.846487 34.4515 1.13965C34.3772 1.35274 34.3079 1.46946 34.1882 1.65912L34.1626 1.6799C34.0727 1.69099 33.5674 1.48526 33.4526 1.44108C32.9986 1.26619 32.5632 1.14915 32.0959 1.02099C32.1286 0.795739 32.1851 0.604507 32.2654 0.392944Z" fill="#099FAE"/>
<path d="M42.269 15.2211C42.4133 15.2167 42.7567 15.2482 42.8487 15.3606C42.9227 15.7334 42.4843 17.2159 42.3719 17.6172C42.1287 17.5453 41.9825 17.4649 41.7589 17.3448C41.8467 16.9873 41.9811 16.6207 42.0677 16.2575C42.1502 15.9103 42.1954 15.5688 42.269 15.2211Z" fill="#099FAE"/>
<path d="M27.884 0.00668297C28.0019 -0.00441263 28.1481 0.00142209 28.2685 0.0024398C28.2908 0.22272 28.2855 0.440391 28.2846 0.661602C27.682 0.673403 27.1357 0.706246 26.5411 0.802798C26.4259 0.820841 26.3111 0.840862 26.1966 0.862857C26.1327 0.645835 26.1069 0.444847 26.0821 0.221195C26.7275 0.111384 27.236 0.0613369 27.884 0.00668297Z" fill="#099FAE"/>
<path d="M29.1553 0.00807937C29.752 -0.00788988 30.7497 0.133597 31.3483 0.223564C31.3443 0.431294 31.3176 0.629567 31.2828 0.833857C31.1803 0.850733 30.4824 0.732755 30.294 0.719706C29.9202 0.693789 29.5319 0.674795 29.1565 0.653902L29.1553 0.00807937Z" fill="#099FAE"/>
<path d="M16.9507 3.67786C17.0925 3.69261 17.3086 4.10206 17.3781 4.221C16.7375 4.56543 16.253 4.95388 15.6904 5.26836C15.5268 5.1149 15.3623 4.96236 15.197 4.81075C15.7354 4.43129 16.3796 4.00718 16.9507 3.67786Z" fill="#099FAE"/>
<path d="M41.4409 18.1902C41.6219 18.2257 41.8554 18.3633 42.017 18.4533C41.7894 18.9661 41.2305 19.8677 40.936 20.3863C40.8224 20.3923 40.5184 20.1461 40.4067 20.066C40.7774 19.4555 41.1226 18.8296 41.4409 18.1902Z" fill="#099FAE"/>
<path d="M19.612 2.33679C19.6994 2.38709 19.8625 2.78444 19.9056 2.89275C19.4189 3.12881 18.9296 3.38732 18.456 3.64885C18.3335 3.71653 18.2304 3.78992 18.0981 3.84283C17.984 3.66753 17.8516 3.43133 17.7426 3.24782C18.3384 2.94737 19.0051 2.60633 19.612 2.33679Z" fill="#099FAE"/>
<path d="M22.3233 1.20142L22.3679 1.2096C22.4581 1.28923 22.5501 1.65194 22.5906 1.78518C22.4867 1.83066 22.3473 1.87812 22.2368 1.91425C21.699 2.08995 21.205 2.35862 20.6871 2.57559C20.5974 2.37644 20.4639 2.21958 20.4034 1.9832C21.0318 1.69505 21.6723 1.43423 22.3233 1.20142Z" fill="#099FAE"/>
<path d="M25.1319 0.40464C25.165 0.398447 25.1818 0.401564 25.2161 0.402447C25.307 0.520224 25.3292 0.857411 25.3484 1.01779C24.6005 1.18789 24.1611 1.30544 23.4371 1.51994L23.4213 1.5209C23.3453 1.44303 23.2554 1.06741 23.2223 0.941807C23.7191 0.723525 24.6031 0.522307 25.1319 0.40464Z" fill="#099FAE"/>
<path d="M23.0412 8.92373C23.2967 8.74206 23.9926 8.36853 24.2843 8.21318C26.647 6.95465 29.4455 6.32856 32.1119 6.74981C32.6623 6.83673 33.1038 6.89425 33.6539 7.0626C34.0487 7.12216 34.5619 7.32043 34.9384 7.4623C36.755 8.14666 38.3409 9.29802 39.504 10.855C41.2591 13.205 42.2133 18.09 40.3409 21.1501C40.2432 21.3098 40.042 21.5378 39.9159 21.6843C39.1406 22.5789 38.2465 23.3636 37.258 24.0165C37.1501 24.0868 36.8555 24.2767 36.7495 24.3112C36.706 24.3615 36.2158 24.6316 36.1176 24.6852C34.6788 25.471 33.0915 25.9489 31.4606 26.0927C29.0854 26.3024 26.797 25.5681 24.7128 24.4842C24.5124 24.3801 23.6374 23.9161 23.4914 23.7914C23.2127 23.6646 22.6591 23.2845 22.3825 23.0883C19.722 21.2004 17.4506 18.7641 15.101 16.5165C14.6332 16.0691 14.1772 15.6997 13.7005 15.2813C13.5746 15.229 13.1402 14.867 12.9969 14.7736C12.5852 14.505 12.2597 14.3812 11.8087 14.2208C11.9674 14.1315 12.6285 14.2891 12.7997 14.3403C13.8086 14.6422 14.7864 15.1482 15.7298 15.608C16.879 16.1682 17.9159 16.6175 19.1667 16.8814C20.6115 17.1863 22.0565 17.248 23.5248 17.0902C24.6489 16.9695 25.6322 16.8029 26.7716 16.8545C27.6307 16.8955 28.4804 17.0515 29.2978 17.3184C29.5155 17.3873 30.1858 17.6424 30.3599 17.6711C31.444 18.0104 31.9721 18.0463 33.0053 17.5999C33.9771 17.1039 34.5936 16.4479 35.0692 15.4643C36.1985 13.1444 35.55 10.522 33.611 8.85856C32.6793 8.05941 31.6499 7.70161 30.4576 7.50714C29.3515 7.35056 28.2677 7.46496 27.1914 7.73658C26.9981 7.78534 26.4518 7.98798 26.3309 8.00123C25.8165 8.24898 25.4443 8.36692 24.9056 8.6694C24.4459 8.92741 24.0787 9.2141 23.6634 9.45393C23.4933 9.32885 23.1907 9.06817 23.0412 8.92373Z" fill="url(#paint2_linear_2029_5855)"/>
<path d="M53.6446 23.8186V7.92529H60.3558C61.3532 7.92529 62.2153 8.10307 62.942 8.45863C63.6687 8.79996 64.2244 9.29774 64.6091 9.95196C64.9938 10.592 65.1862 11.3528 65.1862 12.2346C65.1862 13.0026 64.9867 13.7066 64.5877 14.3466C64.203 14.9724 63.5974 15.4702 62.771 15.84V14.7733C63.4977 15.0577 64.089 15.4204 64.545 15.8613C65.0009 16.288 65.3286 16.7715 65.5281 17.312C65.7419 17.8524 65.8487 18.4213 65.8487 19.0186C65.8487 20.5119 65.3571 21.6853 64.374 22.5386C63.4051 23.3919 62.0728 23.8186 60.3772 23.8186H53.6446ZM56.1666 21.5786H60.5695C61.4102 21.5786 62.0799 21.3511 62.5786 20.8959C63.0773 20.4266 63.3267 19.808 63.3267 19.04C63.3267 18.2577 63.0773 17.6391 62.5786 17.184C62.0799 16.7146 61.4102 16.48 60.5695 16.48H56.1666V21.5786ZM56.1666 14.2613H60.4199C61.1039 14.2613 61.6524 14.0693 62.0657 13.6853C62.4789 13.2871 62.6855 12.768 62.6855 12.128C62.6855 11.488 62.4789 10.9902 62.0657 10.6346C61.6524 10.2791 61.1039 10.1013 60.4199 10.1013H56.1666V14.2613Z" fill="#111110"/>
<path d="M71.243 24.0746C70.4593 24.0746 69.7682 23.9395 69.1698 23.6693C68.5856 23.3848 68.1296 23.0008 67.8019 22.5173C67.4742 22.0195 67.3103 21.4364 67.3103 20.7679C67.3103 20.1422 67.4457 19.5804 67.7164 19.0826C68.0014 18.5848 68.436 18.1653 69.0202 17.824C69.6044 17.4826 70.3382 17.2408 71.2216 17.0986L75.2398 16.4373V18.336L71.6918 18.9546C71.0506 19.0684 70.5804 19.2746 70.2812 19.5733C69.982 19.8577 69.8323 20.2275 69.8323 20.6826C69.8323 21.1235 69.9962 21.4862 70.3239 21.7706C70.6659 22.0408 71.1005 22.1759 71.6277 22.1759C72.2831 22.1759 72.8531 22.0337 73.3376 21.7493C73.8363 21.4648 74.221 21.0879 74.4917 20.6186C74.7624 20.1351 74.8978 19.6017 74.8978 19.0186V16.0533C74.8978 15.4844 74.6841 15.0222 74.2566 14.6666C73.8434 14.2968 73.2877 14.112 72.5895 14.112C71.9483 14.112 71.3855 14.2826 70.901 14.624C70.4308 14.9511 70.0817 15.3777 69.8537 15.904L67.8446 14.9013C68.0584 14.3324 68.4075 13.8346 68.8919 13.408C69.3764 12.9671 69.9392 12.6257 70.5804 12.384C71.2359 12.1422 71.9269 12.0213 72.6536 12.0213C73.5655 12.0213 74.3706 12.192 75.0688 12.5333C75.7812 12.8746 76.3298 13.3511 76.7145 13.9626C77.1135 14.56 77.313 15.2568 77.313 16.0533V23.8186H75.0047V21.7279L75.4963 21.7919C75.2255 22.2613 74.8764 22.6666 74.449 23.0079C74.0358 23.3493 73.5584 23.6124 73.017 23.7973C72.4898 23.9822 71.8984 24.0746 71.243 24.0746Z" fill="#111110"/>
<path d="M83.9841 24.0746C82.8015 24.0746 81.7613 23.7831 80.8636 23.1999C79.9802 22.6168 79.3604 21.8346 79.0041 20.8533L80.8636 19.9786C81.1771 20.6328 81.6046 21.1519 82.146 21.5359C82.7017 21.9199 83.3144 22.1119 83.9841 22.1119C84.5541 22.1119 85.0172 21.9839 85.3734 21.7279C85.7296 21.4719 85.9077 21.1235 85.9077 20.6826C85.9077 20.3982 85.8293 20.1706 85.6726 20C85.5159 19.8151 85.3164 19.6657 85.0742 19.552C84.8462 19.4382 84.6111 19.3528 84.3688 19.296L82.5521 18.784C81.5547 18.4995 80.8066 18.0728 80.3079 17.504C79.8235 16.9208 79.5812 16.2453 79.5812 15.4773C79.5812 14.7804 79.7593 14.176 80.1156 13.664C80.4718 13.1377 80.9634 12.7324 81.5903 12.448C82.2173 12.1635 82.9226 12.0213 83.7063 12.0213C84.7607 12.0213 85.7011 12.2844 86.5275 12.8106C87.354 13.3226 87.9382 14.0408 88.2802 14.9653L86.4207 15.84C86.1927 15.2853 85.8293 14.8444 85.3306 14.5173C84.8462 14.1902 84.2976 14.0266 83.6849 14.0266C83.1577 14.0266 82.7373 14.1546 82.4239 14.4106C82.1104 14.6524 81.9537 14.9724 81.9537 15.3706C81.9537 15.6408 82.0249 15.8684 82.1674 16.0533C82.3099 16.224 82.4951 16.3662 82.7231 16.48C82.9511 16.5795 83.1862 16.6648 83.4284 16.736L85.3093 17.2906C86.2639 17.5608 86.9978 17.9875 87.5107 18.5706C88.0237 19.1395 88.2802 19.8222 88.2802 20.6186C88.2802 21.3013 88.0949 21.9057 87.7244 22.4319C87.3682 22.9439 86.8695 23.3493 86.2283 23.6479C85.5871 23.9324 84.8391 24.0746 83.9841 24.0746Z" fill="#111110"/>
<path d="M90.2191 23.8186V12.2773H92.6343V23.8186H90.2191ZM90.2191 10.6986V7.92529H92.6343V10.6986H90.2191Z" fill="#111110"/>
<path d="M100.524 24.0746C99.3694 24.0746 98.3435 23.8115 97.4458 23.2853C96.5623 22.7448 95.857 22.0195 95.3298 21.1093C94.8169 20.1991 94.5604 19.168 94.5604 18.016C94.5604 16.8782 94.8169 15.8542 95.3298 14.944C95.8428 14.0337 96.5481 13.3226 97.4458 12.8106C98.3435 12.2844 99.3694 12.0213 100.524 12.0213C101.307 12.0213 102.041 12.1635 102.725 12.448C103.409 12.7182 104 13.0951 104.499 13.5786C105.012 14.0622 105.39 14.624 105.632 15.264L103.516 16.2453C103.274 15.648 102.882 15.1715 102.34 14.816C101.813 14.4462 101.207 14.2613 100.524 14.2613C99.8681 14.2613 99.2768 14.4248 98.7495 14.752C98.2366 15.0648 97.8305 15.5128 97.5313 16.096C97.232 16.6648 97.0824 17.312 97.0824 18.0373C97.0824 18.7626 97.232 19.4168 97.5313 20C97.8305 20.5688 98.2366 21.0168 98.7495 21.3439C99.2768 21.6711 99.8681 21.8346 100.524 21.8346C101.222 21.8346 101.827 21.6568 102.34 21.3013C102.867 20.9315 103.259 20.4408 103.516 19.8293L105.632 20.832C105.404 21.4435 105.033 21.9982 104.52 22.4959C104.022 22.9795 103.43 23.3635 102.746 23.6479C102.062 23.9324 101.321 24.0746 100.524 24.0746Z" fill="#111110"/>
<path d="M110.365 23.8186L106.389 12.2773H108.954L111.989 21.4719H111.091L114.191 12.2773H116.392L119.47 21.4719H118.572L121.628 12.2773H124.193L120.196 23.8186H118.016L114.896 14.4106H115.687L112.566 23.8186H110.365Z" fill="#111110"/>
<path d="M128.467 24.0746C127.683 24.0746 126.992 23.9395 126.393 23.6693C125.809 23.3848 125.353 23.0008 125.025 22.5173C124.698 22.0195 124.534 21.4364 124.534 20.7679C124.534 20.1422 124.669 19.5804 124.94 19.0826C125.225 18.5848 125.66 18.1653 126.244 17.824C126.828 17.4826 127.562 17.2408 128.445 17.0986L132.463 16.4373V18.336L128.915 18.9546C128.274 19.0684 127.804 19.2746 127.505 19.5733C127.206 19.8577 127.056 20.2275 127.056 20.6826C127.056 21.1235 127.22 21.4862 127.548 21.7706C127.89 22.0408 128.324 22.1759 128.851 22.1759C129.507 22.1759 130.077 22.0337 130.561 21.7493C131.06 21.4648 131.445 21.0879 131.715 20.6186C131.986 20.1351 132.121 19.6017 132.121 19.0186V16.0533C132.121 15.4844 131.908 15.0222 131.48 14.6666C131.067 14.2968 130.511 14.112 129.813 14.112C129.172 14.112 128.609 14.2826 128.125 14.624C127.654 14.9511 127.305 15.3777 127.077 15.904L125.068 14.9013C125.282 14.3324 125.631 13.8346 126.116 13.408C126.6 12.9671 127.163 12.6257 127.804 12.384C128.459 12.1422 129.151 12.0213 129.877 12.0213C130.789 12.0213 131.594 12.192 132.292 12.5333C133.005 12.8746 133.553 13.3511 133.938 13.9626C134.337 14.56 134.537 15.2568 134.537 16.0533V23.8186H132.228V21.7279L132.72 21.7919C132.449 22.2613 132.1 22.6666 131.673 23.0079C131.259 23.3493 130.782 23.6124 130.241 23.7973C129.713 23.9822 129.122 24.0746 128.467 24.0746Z" fill="#111110"/>
<path d="M136.933 23.8186V12.2773H139.241V14.6026L139.028 14.2613C139.284 13.5075 139.697 12.9671 140.267 12.64C140.837 12.2986 141.521 12.128 142.319 12.128H143.024V14.3253H142.02C141.222 14.3253 140.574 14.5742 140.075 15.072C139.59 15.5555 139.348 16.2524 139.348 17.1626V23.8186H136.933Z" fill="#111110"/>
<path d="M149.678 24.0746C148.524 24.0746 147.498 23.8115 146.6 23.2853C145.717 22.7448 145.026 22.0195 144.527 21.1093C144.028 20.1848 143.779 19.1537 143.779 18.016C143.779 16.8497 144.028 15.8186 144.527 14.9226C145.04 14.0266 145.724 13.3226 146.579 12.8106C147.434 12.2844 148.403 12.0213 149.486 12.0213C150.355 12.0213 151.131 12.1706 151.815 12.4693C152.499 12.768 153.076 13.1804 153.547 13.7066C154.017 14.2186 154.373 14.8088 154.615 15.4773C154.872 16.1457 155 16.8568 155 17.6106C155 17.7955 154.993 17.9875 154.979 18.1866C154.964 18.3857 154.936 18.5706 154.893 18.7413H145.681V16.8213H153.525L152.371 17.696C152.514 16.9991 152.464 16.3804 152.221 15.84C151.993 15.2853 151.637 14.8515 151.153 14.5386C150.683 14.2115 150.127 14.048 149.486 14.048C148.845 14.048 148.275 14.2115 147.776 14.5386C147.277 14.8515 146.892 15.3066 146.622 15.904C146.351 16.4871 146.244 17.1982 146.301 18.0373C146.23 18.8195 146.337 19.5022 146.622 20.0853C146.921 20.6684 147.334 21.1235 147.861 21.4506C148.403 21.7777 149.015 21.9413 149.699 21.9413C150.398 21.9413 150.989 21.7848 151.473 21.4719C151.972 21.1591 152.364 20.7537 152.649 20.256L154.615 21.2159C154.387 21.7564 154.031 22.2471 153.547 22.6879C153.076 23.1146 152.506 23.4559 151.837 23.7119C151.181 23.9537 150.462 24.0746 149.678 24.0746Z" fill="#111110"/>
<defs>
<linearGradient id="paint0_linear_2029_5855" x1="16.0212" y1="6.21558" x2="16.0212" y2="24.1991" gradientUnits="userSpaceOnUse">
<stop stop-color="#016DB5"/>
<stop offset="1" stop-color="#001627"/>
</linearGradient>
<radialGradient id="paint1_radial_2029_5855" cx="0" cy="0" r="1" gradientTransform="matrix(0.00878586 4.29925 -11.8674 0.0241615 13.694 27.7008)" gradientUnits="userSpaceOnUse">
<stop stop-color="#015186"/>
<stop offset="1" stop-color="#001D55"/>
</radialGradient>
<linearGradient id="paint2_linear_2029_5855" x1="38.2252" y1="22.4148" x2="25.229" y2="19.4775" gradientUnits="userSpaceOnUse">
<stop stop-color="#00EFC8"/>
<stop offset="1" stop-color="#009A9A"/>
</linearGradient>
</defs>
</svg>
