<svg width="220" height="176" viewBox="0 0 220 176" fill="none" xmlns="http://www.w3.org/2000/svg">
<g clip-path="url(#clip0_509_11331)">
<path d="M52.3686 38.3293C53.8554 37.9346 56.6483 37.6745 58.2425 37.5088C71.4407 36.2292 84.7076 39.129 96.1685 45.7984C104.462 50.6038 111.98 57.1573 118.989 63.6425C119.268 63.8996 120.522 65.0153 120.674 65.2707C122.2 66.5557 124.146 68.6583 125.61 70.1051L136.689 81.2434C142.023 86.5315 148.199 92.5239 155.068 95.7623C154.18 95.6153 150.761 94.312 149.65 93.9595C145.48 92.5957 141.146 91.7981 136.763 91.5887C130.95 91.3249 125.934 92.1768 120.2 92.7935C112.709 93.5995 105.338 93.2845 97.9673 91.7264C91.5867 90.3776 86.2969 88.0807 80.4341 85.2179C75.6215 82.868 70.6334 80.2819 65.4866 78.7389C64.6133 78.4769 61.2408 77.6717 60.4316 78.128C56.581 76.9909 51.2172 78.2577 47.8389 80.2066C37.8468 85.97 33.1081 97.6061 35.8549 108.778C36.0823 109.703 37.0182 112.046 37.0823 112.724C41.0671 121.509 47.4419 126.926 56.8822 129.126C46.5289 128.329 38.3358 125.223 29.7604 119.326C27.3497 117.668 23.8158 114.852 21.8898 112.72C20.9711 111.949 19.5214 110.291 18.7253 109.344C13.9755 103.788 10.7993 97.062 9.52656 89.8643C8.153 82.1916 8.52946 75.1993 11.7974 67.9909C12.4087 66.6421 13.178 65.0563 14.0152 63.8506C18.0214 56.4488 26.7602 48.9191 34.0688 44.9424C39.1941 42.154 46.5579 39.1445 52.3686 38.3293Z" fill="url(#paint0_linear_509_11331)"/>
<path d="M3.23664 80.5043L4.03899 80.126L4.17551 80.1835L4.34609 80.9182C3.09314 90.5443 6.35747 101.281 12.0438 109.067C21.0427 121.555 35.8287 129.582 50.8992 131.868C65.3285 134.056 84.8903 128.75 96.5384 120.074C108.08 130.445 124.627 141.44 139.997 144.673C136.872 145.86 134.401 147.186 131.409 148.686C128.218 150.285 125.011 151.856 121.79 153.395C99.3134 164.09 75.057 173.732 49.9586 166.468C32.1339 161.199 17.1493 149.035 8.3293 132.675C6.31728 128.981 4.7896 125.193 3.49553 121.198C-0.932178 107.533 -0.80098 94.2586 3.23664 80.5043Z" fill="url(#paint1_radial_509_11331)"/>
<path d="M205.312 35.2313L205.524 35.3315C206.995 37.4051 211.388 43.8825 212.142 46.2234C211.324 46.7964 210.171 47.4376 209.293 47.9535L209.144 47.9928C208.834 47.7472 208.524 46.9149 208.331 46.5282C206.663 43.1992 204.588 40.1903 202.442 37.1671L205.312 35.2313Z" fill="#099FAE"/>
<path d="M193.629 22.1755C195.304 23.3091 201.531 29.6671 202.571 31.3527C202.091 31.8856 200.71 33.0498 200.142 33.4788L199.951 33.5035C199.527 33.2033 199.134 32.7201 198.78 32.3249C196.459 29.7263 193.892 27.4067 191.342 25.0377C192.098 24.0797 192.861 23.1256 193.629 22.1755Z" fill="#099FAE"/>
<path d="M179.891 13.0221C181.28 13.6726 185.499 16.2367 186.686 17.0787C188.003 17.8211 188.881 18.5229 190.048 19.4898C189.588 20.3083 188.739 21.5687 188.179 22.3559C187.718 22.1107 183.122 19.0573 182.906 18.7966C181.618 18.1656 179.564 16.8778 178.166 16.1168C178.692 14.9536 179.115 14.0364 179.891 13.0221Z" fill="#099FAE"/>
<path d="M213.486 50.6702L213.76 50.7593C215.063 52.4043 217.339 60.024 217.618 62.3829C216.777 62.5272 215.844 62.627 214.985 62.7522C214.642 62.7531 214.59 62.7732 214.259 62.6627C213.219 58.7978 212.357 55.7372 210.82 51.9641C211.831 51.5252 212.526 51.2053 213.486 50.6702Z" fill="#099FAE"/>
<path d="M217.656 66.8894C218.033 66.8439 218.019 66.8283 218.378 66.9277C219.344 68.46 219.409 77.0898 219.294 79.1902C218.516 79.1443 218.118 79.1207 217.348 78.9692C216.878 78.9153 216.5 78.8431 216.035 78.7535C216.026 74.2622 215.873 71.9631 215.335 67.5198C216.051 67.2721 216.912 67.077 217.656 66.8894Z" fill="#099FAE"/>
<path d="M164.789 7.45508C167.628 8.19245 173.459 9.77311 175.942 11.2714C175.563 12.3606 175.209 12.9571 174.598 13.9264L174.468 14.0326C174.009 14.0893 171.431 13.0378 170.846 12.812C168.53 11.9182 166.309 11.32 163.925 10.665C164.091 9.51374 164.38 8.53639 164.789 7.45508Z" fill="#099FAE"/>
<path d="M215.822 83.24C216.558 83.2172 218.309 83.3785 218.779 83.9529C219.157 85.8586 216.921 93.4355 216.347 95.4865C215.106 95.1189 214.36 94.708 213.22 94.094C213.668 92.2668 214.353 90.3931 214.795 88.5369C215.216 86.7622 215.447 85.0169 215.822 83.24Z" fill="#099FAE"/>
<path d="M142.439 5.48054C143.04 5.42387 143.786 5.45368 144.4 5.45889C144.513 6.58471 144.486 7.69721 144.482 8.8278C141.408 8.88813 138.621 9.05597 135.588 9.54944C135 9.64167 134.414 9.74402 133.83 9.85644C133.505 8.74724 133.373 7.71998 133.246 6.57691C136.539 6.01567 139.133 5.75992 142.439 5.48054Z" fill="#099FAE"/>
<path d="M148.924 5.48719C151.968 5.40556 157.058 6.12872 160.112 6.58851C160.091 7.65021 159.955 8.66357 159.777 9.70767C159.255 9.79393 155.694 9.19094 154.733 9.12429C152.826 8.99182 150.846 8.89473 148.93 8.78797L148.924 5.48719Z" fill="#099FAE"/>
<path d="M86.6629 24.2435C87.3861 24.3189 88.4884 26.4116 88.8431 27.0195C85.5748 28.7799 83.1037 30.7652 80.2338 32.3725C79.3988 31.5882 78.5598 30.8086 77.7163 30.0336C80.4632 28.0943 83.7493 25.9267 86.6629 24.2435Z" fill="#099FAE"/>
<path d="M211.597 98.4153C212.52 98.5966 213.712 99.3002 214.536 99.76C213.375 102.381 210.524 106.989 209.021 109.64C208.442 109.67 206.891 108.412 206.321 108.003C208.213 104.882 209.974 101.684 211.597 98.4153Z" fill="#099FAE"/>
<path d="M100.24 17.3901C100.686 17.6472 101.518 19.678 101.738 20.2316C99.2545 21.4381 96.7584 22.7593 94.3425 24.096C93.7174 24.4419 93.1916 24.817 92.5166 25.0874C91.9342 24.1915 91.2592 22.9843 90.7026 22.0463C93.7428 20.5108 97.1438 18.7677 100.24 17.3901Z" fill="#099FAE"/>
<path d="M114.071 11.5868L114.3 11.6286C114.759 12.0356 115.229 13.8894 115.435 14.5704C114.906 14.8028 114.194 15.0454 113.63 15.23C110.887 16.128 108.367 17.5012 105.725 18.6101C105.267 17.5923 104.586 16.7906 104.278 15.5824C107.483 14.1097 110.751 12.7767 114.071 11.5868Z" fill="#099FAE"/>
<path d="M128.399 7.5146C128.568 7.48292 128.653 7.49887 128.828 7.50337C129.292 8.10534 129.405 9.82866 129.503 10.6484C125.688 11.5177 123.446 12.1185 119.753 13.2148L119.672 13.2197C119.285 12.8217 118.826 10.902 118.657 10.26C121.192 9.1444 125.701 8.11598 128.399 7.5146Z" fill="#099FAE"/>
<path d="M117.732 51.0548C119.036 50.1262 122.585 48.2174 124.074 47.4234C136.127 40.9911 150.403 37.7912 164.006 39.9442C166.813 40.3884 169.065 40.6824 171.872 41.5429C173.886 41.8472 176.504 42.8606 178.424 43.5857C187.692 47.0834 195.782 52.9681 201.715 60.9255C210.669 72.9363 215.537 97.9033 205.985 113.543C205.486 114.36 204.46 115.525 203.817 116.274C199.861 120.846 195.3 124.856 190.258 128.193C189.707 128.553 188.204 129.523 187.664 129.699C187.442 129.956 184.941 131.337 184.44 131.611C177.1 135.627 169.003 138.07 160.683 138.805C148.566 139.876 136.892 136.123 126.26 130.584C125.237 130.052 120.774 127.68 120.029 127.043C118.607 126.395 115.783 124.452 114.372 123.449C100.8 113.8 89.2123 101.348 77.226 89.8612C74.84 87.5746 72.5137 85.6867 70.0817 83.548C69.4397 83.2806 67.2239 81.4311 66.4922 80.953C64.3923 79.5806 62.7316 78.9475 60.4312 78.1276C61.2408 77.6718 64.6133 78.4769 65.4861 78.7389C70.6334 80.2819 75.6215 82.868 80.4341 85.218C86.2965 88.0807 91.5863 90.3777 97.9668 91.7264C105.337 93.2845 112.709 93.5996 120.199 92.7935C125.934 92.1764 130.95 91.3249 136.763 91.5887C141.145 91.7981 145.48 92.5957 149.65 93.9596C150.76 94.312 154.179 95.6153 155.068 95.7624C160.598 97.4965 163.292 97.6801 168.563 95.3988C173.52 92.863 176.666 89.5106 179.092 84.4837C184.853 72.6262 181.545 59.2239 171.653 50.722C166.9 46.6374 161.649 44.8088 155.567 43.8149C149.924 43.0146 144.395 43.5993 138.904 44.9875C137.918 45.2365 135.131 46.2725 134.514 46.3402C131.89 47.6065 129.992 48.2089 127.243 49.7551C124.898 51.074 123.025 52.539 120.907 53.7647C120.039 53.1254 118.495 51.7931 117.732 51.0548Z" fill="url(#paint2_linear_509_11331)"/>
</g>
<defs>
<linearGradient id="paint0_linear_509_11331" x1="81.9223" y1="37.2135" x2="81.9223" y2="129.126" gradientUnits="userSpaceOnUse">
<stop stop-color="#016DB5"/>
<stop offset="1" stop-color="#001627"/>
</linearGradient>
<radialGradient id="paint1_radial_509_11331" cx="0" cy="0" r="1" gradientUnits="userSpaceOnUse" gradientTransform="translate(70.0497 147.022) rotate(89.8831) scale(21.9732 60.5404)">
<stop stop-color="#015186"/>
<stop offset="1" stop-color="#001D55"/>
</radialGradient>
<linearGradient id="paint2_linear_509_11331" x1="195.192" y1="120.007" x2="128.881" y2="105.048" gradientUnits="userSpaceOnUse">
<stop stop-color="#00EFC8"/>
<stop offset="1" stop-color="#009A9A"/>
</linearGradient>
<clipPath id="clip0_509_11331">
<rect width="220" height="176" fill="white"/>
</clipPath>
</defs>
</svg>
